<svg id="Layer_1" xmlns="http://www.w3.org/2000/svg" viewBox="0 0 237 75.8"><style>.st0{fill:#0076c0}.st1{fill:#5f6062}.st2{fill:#fff}</style><path class="st2" d="M19.6 38.4c0 .7-.5 1.2-1.2 1.2s-1.2-.5-1.2-1.2v-7c0-.6.5-1.2 1.2-1.2.6 0 1.2.5 1.2 1.2v7z"/><path class="st2" d="M18.4 45.5c1.8 0 3.6-.7 5-2.1 2.8-2.7 2.8-7.2 0-10-.5-.5-1.2-.5-1.7 0s-.5 1.2 0 1.7c1.8 1.8 1.8 4.8 0 6.6-.9.9-2.1 1.4-3.3 1.4-1.2 0-2.4-.5-3.3-1.4-1.8-1.8-1.8-4.8 0-6.6.5-.5.5-1.2 0-1.7s-1.2-.5-1.7 0c-2.8 2.8-2.8 7.2 0 10 1.4 1.4 3.2 2.1 5 2.1m20.8-13.8c-.7 0-1.2.5-1.2 1.2v8l-7.4-8.7c-.2-.3-.5-.4-.9-.4-.6 0-1.2.5-1.2 1.2v11c0 .7.5 1.2 1.2 1.2s1.2-.5 1.2-1.2v-7.9l7.4 8.7c.2.3.5.4.9.4.6 0 1.2-.5 1.2-1.2V32.9c0-.7-.5-1.2-1.2-1.2M214.4 43h1.8v-3l1.6-1.6 3.5 4.6h2.2l-4.4-5.8 4.2-4.4H221l-4.8 5.1v-5.1h-1.8V43zm-7.8-5.2c1.3 0 2.1-.7 2.1-1.7 0-1.1-.8-1.7-2.1-1.7H204v3.4h2.6zm-4.4-5h4.5c1.3 0 2.3.4 2.9 1 .5.6.8 1.3.8 2.2 0 1.7-1 2.7-2.4 3.1l2.7 3.8h-2.1l-2.5-3.5H204V43h-1.8V32.8zm-5.1 5.1c0-2-1.4-3.6-3.5-3.6-2 0-3.4 1.6-3.4 3.6s1.4 3.6 3.5 3.6 3.4-1.6 3.4-3.6m-8.8 0c0-2.9 2.2-5.3 5.3-5.3 3.1 0 5.3 2.4 5.3 5.2 0 2.9-2.2 5.3-5.3 5.3-3.1 0-5.3-2.3-5.3-5.2M174.8 43h1.5l2.5-7.3 2.5 7.3h1.5l3.5-10.2h-1.9l-2.4 7.5-2.5-7.6H178l-2.5 7.6-2.4-7.5h-1.9l3.6 10.2zm-10.9 0h1.8v-8.5h3.2v-1.7h-8.2v1.7h3.2V43zm-13.6 0h7.6v-1.6h-5.8v-2.7h5.1V37h-5.1v-2.6h5.7v-1.6h-7.5V43zm-12.6 0h1.8v-7.2l5.6 7.2h1.5V32.8h-1.8v7l-5.4-7h-1.7V43zm-12.4-5.2c1.3 0 2.1-.7 2.1-1.7 0-1.1-.8-1.7-2.1-1.7h-2.6v3.4h2.6zm-4.4-5h4.5c1.3 0 2.3.4 2.9 1 .5.6.8 1.3.8 2.2 0 1.7-1 2.7-2.4 3.1l2.7 3.8h-2.1l-2.5-3.5h-2.2V43h-1.8V32.8zm-6.6 6.1l-1.8-4.1-1.7 4.1h3.5zm-2.5-6.2h1.7l4.5 10.2h-2l-1-2.5h-4.8l-1 2.5h-1.8l4.4-10.2zM101.2 43h1.8v-4.1l4-6.1h-2l-2.9 4.5-2.8-4.5h-2.1l4 6.2v4zm-11-1.7c2.1 0 3.5-1.4 3.5-3.4s-1.4-3.5-3.5-3.5h-2v6.9h2zm-3.8-8.5h3.8c3.2 0 5.4 2.2 5.4 5.1 0 2.9-2.2 5.1-5.4 5.1h-3.8V32.8zM80.5 43h1.8V32.8h-1.8V43zm-14.1 0h1.8v-7.3l3.2 4.8h.1l3.2-4.8V43h1.8V32.8h-1.9l-3.1 4.8-3.1-4.8h-1.9V43zM61 37.9c0-2-1.4-3.6-3.5-3.6-2 0-3.4 1.6-3.4 3.6s1.4 3.6 3.5 3.6c2 0 3.4-1.6 3.4-3.6m-8.7 0c0-2.9 2.2-5.3 5.3-5.3 3.1 0 5.3 2.4 5.3 5.2 0 2.9-2.2 5.3-5.3 5.3-3.2 0-5.3-2.3-5.3-5.2"/></svg>