<svg xmlns="http://www.w3.org/2000/svg" width="699.846" height="88.649" viewBox="0 0 699.846 88.649"><defs><style>.a,.b,.c{fill:#00a7e0}.a{opacity:.2}.b{opacity:.6}.d{fill:#fff}</style></defs><path class="a" d="M44.331.044v6.341H37.99V.044z"/><path class="b" d="M37.999.035v6.341h-6.341V.035z"/><path class="a" d="M50.654 6.36v6.341h-6.341V6.36z"/><path class="b" d="M44.322 6.376v6.341h-6.341V6.376z"/><path class="a" d="M56.977 12.701v6.341h-6.341v-6.341z"/><path class="b" d="M50.645 12.692v6.341h-6.341v-6.341z"/><path class="a" d="M63.325 19.041v6.341h-6.341v-6.341z"/><path class="b" d="M63.316 25.373v6.341h-6.341v-6.341z"/><path class="b" d="M56.993 19.033v6.341h-6.341v-6.341z"/><path class="c" d="M56.994 31.7v-6.341h-6.341V31.7h-38v-6.341h38.02v-6.341h-6.341v-6.341H38V6.336h-6.341V0H0v88.649h63.31V31.7zm-6.341 37.971h-38V63.33h38v6.341zm0-12.657h-38v-6.341h38v6.341zm0-12.657h-38V38.02h38v6.341z"/><path class="d" d="M130.788 69.607c-11.682 0-20.583-7.267-20.583-20.583 0-12.511 8.975-20.778 20.705-20.778 11.755 0 20.656 7.194 20.656 20.534-.024 12.487-9.048 20.827-20.778 20.827zm0-33.265c-6.682 0-10.487 5.048-10.487 12.438 0 7.585 3.926 12.755 10.682 12.755 6.633 0 10.487-5.121 10.487-12.511-.025-7.584-4-12.678-10.682-12.678zm44.629 2.001c7.268 0 12.56 5.926 12.56 15.291 0 9.731-6.755 15.9-14.706 15.9a22.231 22.231 0 0 1-6.073-.951v13.145h-9.73V39.806l9.731-1.195v3.732c1.853-1.9 4.487-4 8.218-4zm-8.219 22.754a8.059 8.059 0 0 0 4.487 1.195c4.17 0 6.56-3.292 6.56-8.145 0-5.048-2.146-8.023-6.121-8.023a6.911 6.911 0 0 0-4.926 2.024v12.949zm34.24-4.805c.317 3.926 3.024 6.194 7.755 6.194a19.945 19.945 0 0 0 9.609-2.853l.951 7.511a26.4 26.4 0 0 1-11.438 2.39c-9.974 0-16.413-5.56-16.413-15.34 0-9.609 6.56-15.852 15.9-15.852 8.341 0 12.877 5 12.877 12.316a21.141 21.141 0 0 1-.634 5.17l-18.632.317v.146zm10.218-5.048v-.561c0-3.463-1.463-5.609-4.487-5.609-3.341 0-5.365 2.9-5.682 6.243zm33.729 17.412V51.292c0-3.536-1.585-4.682-4.17-4.682a8.168 8.168 0 0 0-5.316 2.219v19.827h-9.731v-28.85l9.731-1.2v4.8c2.585-2.975 6.072-5.048 9.852-5.048 5.877 0 9.34 3.853 9.34 10.1v20.193zm45.654 0h-14.145V29.197h14.828c13.9 0 21.778 7.706 21.778 19.437.024 12.145-8 20.022-22.461 20.022zm.049-31.435h-4.146v23.436h4.683c7.267 0 11.8-3.731 11.8-11.608-.022-8.17-4.119-11.829-12.338-11.829zm44.018 27.899c-2.073 2.463-4.414 4.487-8.463 4.487-5.048 0-8.975-3.609-8.975-8.145 0-5.56 4.17-10.048 17.364-10.413v-.561c0-3.1-1.585-4.487-5.17-4.487-3.024 0-6.56 1.268-9.974 2.975l-2.024-7.146a29.633 29.633 0 0 1 13.51-3.463c10.17 0 13.511 4.609 13.389 12.828l-.073 8.706c0 2.024.39 2.219 2.39 2.39l-.951 6.95c-6.39.829-9.536-.878-10.852-4.1h-.171zm-.049-9.536c-6 .683-8.219 1.829-8.219 4.414 0 1.9 1.512 3.146 3.658 3.146a6.021 6.021 0 0 0 4.536-1.951v-5.609zm28.266 14.023c-7.267 0-11.169-2.975-10.8-10.682l.439-11.169-4.414-.756.2-6.194 4.414-1.463.122-6.682h9.414l-.073 7h7.316l-.2 7.633h-7.828l-.317 10.535c-.122 2.707 1.463 3.853 3.853 3.853a12.676 12.676 0 0 0 3.853-.756l1.146 7.585a20.808 20.808 0 0 1-7.125 1.096zm27.85-4.487c-2.073 2.463-4.414 4.487-8.463 4.487-5.048 0-8.974-3.609-8.974-8.145 0-5.56 4.17-10.048 17.364-10.413v-.561c0-3.1-1.585-4.487-5.17-4.487-3.024 0-6.56 1.268-9.975 2.975l-2.024-7.146a29.635 29.635 0 0 1 13.511-3.463c10.169 0 13.51 4.609 13.389 12.828l-.073 8.706c0 2.024.39 2.219 2.39 2.39l-.951 6.95c-6.39.829-9.536-.878-10.852-4.1h-.171zm-.049-9.536c-6 .683-8.219 1.829-8.219 4.414 0 1.9 1.512 3.146 3.658 3.146a6.02 6.02 0 0 0 4.536-1.951v-5.609zm45.385 1.585l-3.853.073v11.413h-10.047V29.197h14.583c11.048 0 16.852 5.56 16.852 13.706.025 9.218-6.218 14.266-17.535 14.266zm-.049-20.022h-4.051v12.316l4.048-.073c5.17-.073 7.634-2.268 7.634-6.243s-2.582-6-7.63-6zm36.119 32.461c-8.828 0-15.608-5.56-15.608-15.535s7.073-15.73 15.974-15.73c8.828 0 15.535 5.682 15.535 15.535s-7.122 15.73-15.901 15.73zm.122-23.875c-3.975 0-6.072 3.219-6.072 8.267 0 5 2.146 8.145 6.121 8.145s6.073-3.146 6.073-8.219c-.001-4.901-2.147-8.194-6.122-8.194zm21.144 22.923V26.929l9.73-1.195v42.922zm21.534-33.533c-3.536 0-5.755-1.829-5.755-5.17 0-3.414 2.219-5.243 5.755-5.243 3.609 0 5.755 1.829 5.755 5.243 0 3.341-2.146 5.17-5.755 5.17zm-4.855 33.533V39.81l9.731-1.195V68.66zm31.071.952c-9.731 0-15.9-5.438-15.9-15.413 0-9.731 6.317-15.852 16.169-15.852a22.514 22.514 0 0 1 10.682 2.463l-1.9 7.316a16.581 16.581 0 0 0-7.755-2.268c-4.682 0-7.267 3.292-7.267 8.023 0 5.243 2.975 8.145 7.511 8.145a14.443 14.443 0 0 0 7.755-2.219l1.463 7.389c-2.49 1.538-6.539 2.416-10.758 2.416zm34.41-2.339l-1.462 3.853c-3.025 8.584-6.683 11.169-12.877 11.169a20.108 20.108 0 0 1-8.706-1.9l2.9-7.389a10.848 10.848 0 0 0 4.537 1.317c2.073 0 3.024-.756 4.17-3.609l.83-2.268-11.486-29.173h10.413l6.243 19.315 5.682-19.315h10.365zm28.852 1.387V29.197h10.048v31.07h16.535v8.389zm48.042-3.536c-2.073 2.463-4.414 4.487-8.462 4.487-5.049 0-8.975-3.609-8.975-8.145 0-5.56 4.171-10.048 17.364-10.413v-.561c0-3.1-1.585-4.487-5.169-4.487-3.025 0-6.561 1.268-9.975 2.975l-2.025-7.146a29.641 29.641 0 0 1 13.506-3.463c10.17 0 13.51 4.609 13.389 12.828l-.049 8.682c0 2.024.39 2.219 2.39 2.39l-.951 6.95c-6.389.829-9.535-.878-10.853-4.1zm-.049-9.536c-6 .683-8.219 1.829-8.219 4.414 0 1.9 1.512 3.146 3.658 3.146a6.02 6.02 0 0 0 4.536-1.951v-5.609zm32.265 13.95a22.373 22.373 0 0 1-6.634-1.2l-9.144 1.273V26.929l9.73-1.195v16.608a11.472 11.472 0 0 1 8.267-3.975c7.267 0 12.51 5.926 12.51 15.291-.023 9.706-6.778 15.876-14.729 15.876zm-1.146-23.412a6.912 6.912 0 0 0-4.927 2.024v12.95a8.059 8.059 0 0 0 4.487 1.195c4.171 0 6.561-3.292 6.561-8.145 0-5.049-2.146-8.024-6.12-8.024z"/><path class="c" d="M271.349 59.919v9.536h-9.536v-9.536zm146.919.015v9.536h-9.536v-9.536zm178.786-.001v9.536h-9.536v-9.536z"/></svg>